<svg id="Layer_1" data-name="Layer 1" xmlns="http://www.w3.org/2000/svg" width="57.984" height="38.3" viewBox="0 0 57.984 38.3">
  <title>Artboard 1 copy</title>
  <g>
    <path d="M27.014,2.672a1.392,1.392,0,0,1,.526-1.44C28.925.2,35.948,2.442,41.78,4.748c-3.769-.428-8.886-.607-14.139-.648A3.817,3.817,0,0,1,27.014,2.672Z" style="fill: #f2f2f2"/>
    <path d="M4.42,5.551h.022C4.636,5.542,14.873,5.1,25.285,5.1q.925,0,1.849.005l1.315.01c8.2.079,15.874.494,18.126,1.686C51.937,9.633,56.984,17,56.984,20.637v2.731A13.948,13.948,0,0,1,43.052,37.3H25.293a3.424,3.424,0,0,1-3.42-3.42v-.463a3.428,3.428,0,0,1,2.242-3.2.5.5,0,0,0,.275-.69l-.128-.266a.5.5,0,0,0-.421-.291,3.421,3.421,0,0,1-3.2-3.4v-.462a3.426,3.426,0,0,1,2-3.1.5.5,0,0,0,.292-.455v-.545a.5.5,0,0,0-.356-.479,3.393,3.393,0,0,1-2.441-3.259v-.463a3.424,3.424,0,0,1,3.42-3.42.5.5,0,0,0,0-1H4.42a3.421,3.421,0,0,1,0-6.841Z" style="fill: #f2f2f2"/>
    <path d="M0,8.971a4.425,4.425,0,0,0,4.42,4.421H20.765a4.412,4.412,0,0,0-1.623,3.42v.463a4.377,4.377,0,0,0,2.677,4.044,4.427,4.427,0,0,0-2.173,3.8v.462a4.42,4.42,0,0,0,3.143,4.214,4.425,4.425,0,0,0-1.915,3.626v.463a4.424,4.424,0,0,0,4.42,4.42H43.052A14.949,14.949,0,0,0,57.984,23.368V20.637c0-4.342-5.624-11.911-10.941-14.724a5.917,5.917,0,0,0-.933-.365.485.485,0,0,0-.191-.159c-2.707-1.19-16.326-7.026-19-4.944a2.4,2.4,0,0,0-.9,2.395,4.3,4.3,0,0,0,.456,1.254C15.958,4.049,5.3,4.511,4.408,4.551A4.425,4.425,0,0,0,0,8.971Zm1,0A3.424,3.424,0,0,1,4.42,5.551h.022C4.636,5.542,14.873,5.1,25.285,5.1q.925,0,1.849.005l1.315.01c8.2.079,15.874.494,18.126,1.686C51.937,9.633,56.984,17,56.984,20.637v2.731A13.948,13.948,0,0,1,43.052,37.3H25.293a3.424,3.424,0,0,1-3.42-3.42v-.463a3.428,3.428,0,0,1,2.242-3.2.5.5,0,0,0,.275-.69l-.128-.266a.5.5,0,0,0-.421-.291,3.421,3.421,0,0,1-3.2-3.4v-.462a3.426,3.426,0,0,1,2-3.1.5.5,0,0,0,.292-.455v-.545a.5.5,0,0,0-.356-.479,3.393,3.393,0,0,1-2.441-3.259v-.463a3.424,3.424,0,0,1,3.42-3.42.5.5,0,0,0,0-1H4.42A3.424,3.424,0,0,1,1,8.973ZM27.54,1.232C28.925.2,35.948,2.442,41.78,4.748c-3.769-.428-8.886-.607-14.139-.648a3.817,3.817,0,0,1-.626-1.428A1.392,1.392,0,0,1,27.54,1.232Z" style="fill: #ff4e3e"/>
  </g>
</svg>
