<svg id="Layer_1" data-name="Layer 1" xmlns="http://www.w3.org/2000/svg" width="77.159" height="42.3" viewBox="0 0 77.159 42.3">
  <title>Artboard 1</title>
  <g>
    <path d="M17.174,41.3a1,1,0,0,1-.957-.708L10.377,21.442a1,1,0,0,1,0-.584l5.841-19.15a1,1,0,0,1,1.27-.658L75.472,20.2a1,1,0,0,1,0,1.9L17.488,41.249A.987.987,0,0,1,17.174,41.3Z" style="fill: #ff4e3e"/>
    <path d="M17.174,2,75.159,21.15,17.174,40.3,11.333,21.15,17.174,2m0-2a2,2,0,0,0-1.913,1.417L9.42,20.566a2,2,0,0,0,0,1.167l5.841,19.15A2,2,0,0,0,17.8,42.2l57.984-19.15a2,2,0,0,0,0-3.8L17.8.1a2,2,0,0,0-.627-.1Z" style="fill: #f2f2f2"/>
  </g>
  <line x1="1" y1="21.15" x2="74.566" y2="21.15" style="fill: #ff4e3e;stroke: #f2f2f2;stroke-linecap: round;stroke-linejoin: round;stroke-width: 2px"/>
</svg>
