<svg id="Layer_1" data-name="Layer 1" xmlns="http://www.w3.org/2000/svg" width="57.984" height="38.3" viewBox="0 0 57.984 38.3">
  <title>Artboard 1</title>
  <g>
    <path d="M30.97,2.672a1.392,1.392,0,0,0-.526-1.44C29.059.2,22.036,2.442,16.2,4.748c3.769-.428,8.886-.607,14.139-.648A3.817,3.817,0,0,0,30.97,2.672Z" style="fill: #f2f2f2"/>
    <path d="M53.564,5.551h-.022C53.349,5.542,43.111,5.1,32.7,5.1q-.925,0-1.849.005l-1.315.01c-8.2.079-15.874.494-18.126,1.686C6.047,9.633,1,17,1,20.637v2.731A13.948,13.948,0,0,0,14.932,37.3H32.691a3.424,3.424,0,0,0,3.42-3.42v-.463a3.428,3.428,0,0,0-2.242-3.2.5.5,0,0,1-.275-.69l.128-.266a.5.5,0,0,1,.421-.291,3.421,3.421,0,0,0,3.2-3.4v-.462a3.426,3.426,0,0,0-2-3.1.5.5,0,0,1-.292-.455v-.545a.5.5,0,0,1,.356-.479,3.393,3.393,0,0,0,2.441-3.259v-.463a3.424,3.424,0,0,0-3.42-3.42.5.5,0,0,1,0-1H53.564a3.421,3.421,0,0,0,0-6.841Z" style="fill: #f2f2f2"/>
    <path d="M53.576,4.551c-.893-.04-11.549-.5-22.076-.458a4.3,4.3,0,0,0,.456-1.254,2.4,2.4,0,0,0-.9-2.395c-2.669-2.082-16.288,3.754-19,4.944a.485.485,0,0,0-.191.159,5.917,5.917,0,0,0-.933.365C5.624,8.726,0,16.295,0,20.637v2.731A14.949,14.949,0,0,0,14.932,38.3H32.691a4.424,4.424,0,0,0,4.42-4.42v-.463A4.425,4.425,0,0,0,35.2,29.791a4.42,4.42,0,0,0,3.143-4.214v-.462a4.427,4.427,0,0,0-2.173-3.8,4.377,4.377,0,0,0,2.677-4.044v-.463a4.412,4.412,0,0,0-1.623-3.42H53.564a4.421,4.421,0,0,0,.012-8.841Zm-.012,7.841H34.423a.5.5,0,0,0,0,1,3.424,3.424,0,0,1,3.42,3.42v.463A3.393,3.393,0,0,1,35.4,20.534a.5.5,0,0,0-.356.479v.545a.5.5,0,0,0,.292.455,3.426,3.426,0,0,1,2,3.1v.462a3.421,3.421,0,0,1-3.2,3.4.5.5,0,0,0-.421.291l-.128.266a.5.5,0,0,0,.275.69,3.428,3.428,0,0,1,2.242,3.2v.463a3.424,3.424,0,0,1-3.42,3.42H14.932A13.948,13.948,0,0,1,1,23.368V20.637C1,17,6.047,9.633,11.409,6.8,13.662,5.6,21.339,5.19,29.535,5.111L30.85,5.1q.924,0,1.849-.005c10.412,0,20.649.446,20.843.455h.022a3.421,3.421,0,0,1,0,6.841ZM30.97,2.672A3.817,3.817,0,0,1,30.344,4.1c-5.253.041-10.37.22-14.139.648C22.036,2.442,29.059.2,30.444,1.232A1.392,1.392,0,0,1,30.97,2.672Z" style="fill: #ff4e3e"/>
  </g>
</svg>
